<svg aria-hidden="true" style="position: absolute; width: 0; height: 0; overflow: hidden;" version="1.1" xmlns="http://www.w3.org/2000/svg" xmlns:xlink="http://www.w3.org/1999/xlink">
<defs>
<symbol id="icon-stars" viewBox="0 0 32 32">
<path fill="white" d="M12.76 15.64l-1.26 3.36-1.26-3.36-2.24-0.64 2.24-0.64 1.26-3.36 1.26 3.36 2.24 0.64-2.24 0.64zM22.714 9.238l-1.214-3.238-1.214 3.238-2.286 0.762 2.286 0.762 1.214 3.238 1.214-3.238 2.286-0.762-2.286-0.762zM20.714 21.238l-1.214-3.238-1.214 3.238-2.286 0.762 2.286 0.762 1.214 3.238 1.214-3.238 2.286-0.762-2.286-0.762zM13.459 13.486l-1.959-5.487-1.959 5.487-4.541 1.514 4.541 1.514 1.959 5.486 1.959-5.486 4.541-1.514-4.541-1.514z"></path>
</symbol>
<symbol id="icon-arrow-up" viewBox="0 0 24 24">
<path fill="white" d="M5.707 12.707l5.293-5.293v11.586c0 0.552 0.448 1 1 1s1-0.448 1-1v-11.586l5.293 5.293c0.391 0.391 1.024 0.391 1.414 0s0.391-1.024 0-1.414l-7-7c-0.092-0.092-0.202-0.166-0.324-0.217s-0.253-0.076-0.383-0.076c-0.256 0-0.512 0.098-0.707 0.293l-7 7c-0.391 0.391-0.391 1.024 0 1.414s1.024 0.391 1.414 0z"></path>
</symbol>
<symbol id="icon-linkedin" viewBox="0 0 32 32">
<path d="M29 0h-26c-1.65 0-3 1.35-3 3v26c0 1.65 1.35 3 3 3h26c1.65 0 3-1.35 3-3v-26c0-1.65-1.35-3-3-3zM12 26h-4v-14h4v14zM10 10c-1.106 0-2-0.894-2-2s0.894-2 2-2c1.106 0 2 0.894 2 2s-0.894 2-2 2zM26 26h-4v-8c0-1.106-0.894-2-2-2s-2 0.894-2 2v8h-4v-14h4v2.481c0.825-1.131 2.087-2.481 3.5-2.481 2.488 0 4.5 2.238 4.5 5v9z"></path>
</symbol>
<!--origianl color #000-->
<symbol id="icon-figma" viewBox="0 0 24 24">
<path d="M13 12.5c0-0.691 0.279-1.314 0.732-1.768s1.077-0.732 1.768-0.732 1.314 0.279 1.768 0.732 0.732 1.077 0.732 1.768-0.279 1.314-0.732 1.768-1.077 0.732-1.768 0.732-1.314-0.279-1.768-0.732-0.732-1.077-0.732-1.768zM8.5 8c-0.691 0-1.314-0.279-1.768-0.732s-0.732-1.077-0.732-1.768 0.279-1.314 0.732-1.768 1.077-0.732 1.768-0.732h2.5v5zM13 8v-5h2.5c0.691 0 1.314 0.279 1.768 0.732s0.732 1.077 0.732 1.768-0.279 1.314-0.732 1.768-1.077 0.732-1.768 0.732zM11 17v2.5c0 0.691-0.279 1.314-0.732 1.768s-1.077 0.732-1.768 0.732-1.314-0.279-1.768-0.732-0.732-1.077-0.732-1.768 0.279-1.314 0.732-1.768 1.077-0.732 1.768-0.732zM4 12.5c0 1.242 0.505 2.369 1.318 3.182 0.112 0.112 0.23 0.218 0.353 0.318-0.123 0.1-0.241 0.206-0.353 0.318-0.813 0.813-1.318 1.94-1.318 3.182s0.505 2.369 1.318 3.182 1.94 1.318 3.182 1.318 2.369-0.505 3.182-1.318 1.318-1.94 1.318-3.182v-3.258c0.715 0.478 1.575 0.758 2.5 0.758 1.242 0 2.369-0.505 3.182-1.318s1.318-1.94 1.318-3.182-0.505-2.369-1.318-3.182c-0.112-0.112-0.23-0.218-0.353-0.318 0.123-0.1 0.241-0.206 0.353-0.318 0.813-0.813 1.318-1.94 1.318-3.182s-0.505-2.369-1.318-3.182-1.94-1.318-3.182-1.318h-7c-1.242 0-2.369 0.505-3.182 1.318s-1.318 1.94-1.318 3.182 0.505 2.369 1.318 3.182c0.112 0.112 0.23 0.218 0.353 0.318-0.123 0.1-0.241 0.206-0.353 0.318-0.813 0.813-1.318 1.94-1.318 3.182zM6 12.5c0-0.691 0.279-1.314 0.732-1.768s1.077-0.732 1.768-0.732h2.5v5h-2.5c-0.691 0-1.314-0.279-1.768-0.732s-0.732-1.077-0.732-1.768z"></path>
</symbol>
<!--orginal #cb3837-->
<symbol id="icon-npm" viewBox="0 0 32 32">
<path d="M0 9.779v10.667h8.888v1.776h7.112v-1.776h16v-10.667zM8.888 18.664h-1.776v-5.333h-1.78v5.333h-3.552v-7.108h7.108zM14.221 18.664v1.781h-3.553v-8.889h7.112v7.109h-3.559zM30.223 18.664h-1.773v-5.333h-1.781v5.333h-1.78v-5.333h-1.773v5.333h-3.561v-7.108h10.669zM14.22 13.333h1.78v3.556h-1.78z"></path>
</symbol>
<!--original #393-->
<symbol id="icon-node-dot-js" viewBox="0 0 32 32">
<path d="M15.997 32c-0.428 0-0.855-0.112-1.229-0.329l-3.915-2.316c-0.584-0.327-0.299-0.443-0.107-0.511 0.78-0.271 0.937-0.333 1.771-0.805 0.087-0.049 0.201-0.031 0.291 0.023l3.008 1.785c0.109 0.060 0.263 0.060 0.363 0l11.727-6.768c0.109-0.063 0.179-0.188 0.179-0.317v-13.533c0-0.132-0.071-0.256-0.183-0.323l-11.721-6.763c-0.108-0.063-0.252-0.063-0.361 0l-11.719 6.764c-0.113 0.065-0.185 0.193-0.185 0.321v13.533c0 0.129 0.072 0.252 0.185 0.313l3.212 1.856c1.743 0.872 2.811-0.155 2.811-1.187v-13.361c0-0.189 0.152-0.337 0.341-0.337h1.487c0.185 0 0.34 0.149 0.34 0.337v13.361c0 2.327-1.267 3.66-3.472 3.66-0.677 0-1.212 0-2.701-0.735l-3.077-1.769c-0.76-0.439-1.229-1.26-1.229-2.139v-13.533c0-0.879 0.471-1.7 1.229-2.137l11.727-6.776c0.743-0.42 1.728-0.42 2.464 0l11.725 6.776c0.76 0.439 1.232 1.259 1.232 2.137v13.533c0 0.879-0.472 1.697-1.232 2.139l-11.725 6.771c-0.373 0.217-0.799 0.329-1.233 0.329zM25.465 18.657c0-2.533-1.712-3.208-5.316-3.684-3.641-0.481-4.012-0.731-4.012-1.583 0-0.704 0.313-1.644 3.011-1.644 2.409 0 3.297 0.519 3.663 2.143 0.032 0.153 0.172 0.265 0.329 0.265h1.521c0.095 0 0.184-0.041 0.248-0.108 0.064-0.072 0.099-0.164 0.089-0.261-0.236-2.797-2.095-4.101-5.851-4.101-3.344 0-5.339 1.411-5.339 3.777 0 2.567 1.984 3.276 5.193 3.593 3.84 0.376 4.137 0.937 4.137 1.692 0 1.311-1.052 1.869-3.523 1.869-3.103 0-3.785-0.779-4.015-2.323-0.027-0.165-0.168-0.287-0.337-0.287h-1.516c-0.188 0-0.339 0.149-0.339 0.337 0 1.976 1.075 4.331 6.207 4.331 3.717 0.001 5.848-1.461 5.848-4.017z"></path>
</symbol>
<!--original color #8dd6f9 -->
<symbol id="icon-webpack" viewBox="0 0 32 32">
<path d="M28.021 24.16l-11.553 6.506v-5.068l7.198-3.942zM28.811 23.448v-13.607l-4.228 2.429v8.746zM3.901 24.16l11.553 6.506v-5.068l-7.198-3.942zM3.111 23.448v-13.607l4.228 2.429v8.746zM3.605 8.96l11.849-6.674v4.9l-7.649 4.19zM28.317 8.96l-11.849-6.674v4.9l7.649 4.19zM15.454 24.446l-7.102-3.887v-7.703l7.101 4.083zM16.468 24.446l7.101-3.887v-7.703l-7.101 4.083zM8.833 11.965l7.129-3.904 7.129 3.904-7.129 4.099z"></path>
</symbol>
<!--original color #e34f26 -->
<symbol id="icon-html5" viewBox="0 0 32 32">
<path d="M2 0h28l-2.547 28.751-11.484 3.249-11.419-3.251zM11.375 13l-0.309-3.624 13.412 0.004 0.307-3.496-17.568-0.004 0.931 10.68h12.168l-0.435 4.568-3.88 1.072-3.94-1.080-0.251-2.813h-3.479l0.44 5.561 7.229 1.933 7.172-1.924 0.992-10.876z"></path>
</symbol>
<!--original color #1572b6 -->
<symbol id="icon-css3" viewBox="0 0 32 32">
<path d="M2 0h28l-2.547 28.751-11.484 3.249-11.42-3.251zM24.787 5.884l-17.573-0.004 0.284 3.496 13.5 0.003-0.34 3.621h-8.853l0.32 3.431h8.243l-0.488 4.697-3.88 1.072-3.941-1.080-0.251-2.813h-3.48l0.387 5.14 7.287 2.271 7.164-2.040z"></path>
</symbol>
<!--original color #000 -->
<symbol id="icon-github" viewBox="0 0 32 32">
<path d="M16 0.396c-8.84 0-16 7.164-16 16 0 7.071 4.584 13.067 10.94 15.18 0.8 0.151 1.093-0.344 1.093-0.769 0-0.38-0.013-1.387-0.020-2.72-4.451 0.965-5.389-2.147-5.389-2.147-0.728-1.847-1.78-2.34-1.78-2.34-1.449-0.992 0.112-0.972 0.112-0.972 1.607 0.112 2.451 1.648 2.451 1.648 1.427 2.447 3.745 1.74 4.66 1.331 0.144-1.035 0.556-1.74 1.013-2.14-3.553-0.4-7.288-1.776-7.288-7.907 0-1.747 0.62-3.173 1.647-4.293-0.18-0.404-0.72-2.031 0.14-4.235 0 0 1.34-0.429 4.4 1.64 1.28-0.356 2.64-0.532 4-0.54 1.36 0.008 2.72 0.184 4 0.54 3.040-2.069 4.38-1.64 4.38-1.64 0.86 2.204 0.32 3.831 0.16 4.235 1.020 1.12 1.64 2.547 1.64 4.293 0 6.147-3.74 7.5-7.3 7.893 0.56 0.48 1.080 1.461 1.080 2.96 0 2.141-0.020 3.861-0.020 4.381 0 0.42 0.28 0.92 1.1 0.76 6.401-2.099 10.981-8.099 10.981-15.159 0-8.836-7.164-16-16-16z"></path>
</symbol>
<!--original color #563d7c -->
<symbol id="icon-javascript" viewBox="0 0 32 32">
<path d="M0 0h32v32h-32zM29.379 24.368c-0.233-1.46-1.184-2.687-4.004-3.831-0.981-0.46-2.072-0.78-2.396-1.52-0.121-0.44-0.14-0.68-0.061-0.94 0.2-0.861 1.22-1.12 2.020-0.88 0.52 0.16 1 0.56 1.301 1.2 1.379-0.901 1.379-0.901 2.34-1.5-0.36-0.56-0.539-0.801-0.781-1.040-0.84-0.94-1.959-1.42-3.779-1.379l-0.94 0.119c-0.901 0.22-1.76 0.7-2.28 1.34-1.52 1.721-1.081 4.721 0.759 5.961 1.82 1.36 4.481 1.659 4.821 2.94 0.32 1.56-1.16 2.060-2.621 1.88-1.081-0.24-1.68-0.781-2.34-1.781l-2.44 1.401c0.28 0.64 0.6 0.919 1.080 1.479 2.32 2.341 8.12 2.221 9.161-1.339 0.039-0.12 0.32-0.94 0.099-2.2zM17.401 14.708h-2.997c0 2.584-0.012 5.152-0.012 7.74 0 1.643 0.084 3.151-0.184 3.615-0.44 0.919-1.573 0.801-2.088 0.64-0.528-0.261-0.796-0.621-1.107-1.14-0.084-0.14-0.147-0.261-0.169-0.261l-2.433 1.5c0.407 0.84 1 1.563 1.765 2.023 1.14 0.68 2.672 0.9 4.276 0.54 1.044-0.301 1.944-0.921 2.415-1.881 0.68-1.24 0.536-2.76 0.529-4.461 0.016-2.739 0-5.479 0-8.239z"></path>
</symbol>
<!--original color #563d7c -->
<symbol id="icon-bootstrap" viewBox="0 0 32 32">
<path d="M26.667 0h-21.333c-2.943 0.008-5.325 2.391-5.333 5.333v21.333c0 2.933 2.4 5.333 5.333 5.333h21.333c2.933 0 5.333-2.4 5.333-5.333v-21.333c0-2.933-2.4-5.333-5.333-5.333zM23.751 22.473c-0.267 0.643-0.689 1.209-1.231 1.645-0.56 0.453-1.269 0.827-2.143 1.093-0.872 0.271-1.909 0.407-3.111 0.407h-8.576v-18.667h9.069c1.677 0 3.021 0.377 4.027 1.147 1.013 0.773 1.517 1.925 1.517 3.48 0 0.94-0.229 1.747-0.691 2.413-0.459 0.663-1.12 1.181-1.973 1.541v0.061c1.139 0.24 2.020 0.78 2.6 1.62s0.877 1.901 0.877 3.183c0 0.717-0.139 1.4-0.4 2.037zM20.049 17.873c-0.547-0.5-1.315-0.744-2.307-0.744h-5.763v5.824h5.779c0.987 0 1.76-0.256 2.307-0.773 0.547-0.513 0.827-1.245 0.827-2.187-0.009-0.92-0.28-1.632-0.827-2.12zM19.249 14.109c0.528-0.448 0.787-1.089 0.787-1.925 0-0.939-0.233-1.605-0.707-1.987-0.469-0.38-1.147-0.577-2.037-0.577h-5.333v5.151h5.333c0.777 0 1.44-0.227 1.957-0.661z"></path>
</symbol>
<!--original color #007acc -->
<symbol id="icon-visualstudiocode" viewBox="0 0 32 32">
<path d="M30.867 3.449l-6.587-3.169c-0.253-0.124-0.55-0.197-0.864-0.197-0.55 0-1.049 0.223-1.409 0.584v0l-12.613 11.507-5.493-4.171c-0.221-0.169-0.501-0.271-0.805-0.271-0.346 0-0.661 0.132-0.897 0.348l-1.762 1.602c-0.269 0.245-0.436 0.596-0.436 0.987s0.167 0.741 0.434 0.984l0.001 0.001 4.764 4.347-4.764 4.347c-0.268 0.245-0.435 0.596-0.435 0.985s0.168 0.742 0.435 0.986l0.001 0.001 1.764 1.601c0.236 0.215 0.551 0.347 0.896 0.347 0.304 0 0.584-0.102 0.808-0.273l-0.003 0.002 5.493-4.171 12.613 11.507c0.36 0.361 0.858 0.584 1.408 0.584 0.314 0 0.611-0.073 0.876-0.203l-0.012 0.005 6.589-3.169c0.675-0.331 1.131-1.013 1.131-1.801 0-0.001 0-0.001 0-0.002v0-21.495c0-0 0-0 0-0 0-0.789-0.457-1.472-1.122-1.797l-0.012-0.005zM24.005 23.264l-9.571-7.264 9.571-7.264z"></path>
</symbol>
<!--original color #c69 -->
<symbol id="icon-sass" viewBox="0 0 32 32">
<path d="M16 0c8.836 0 16 7.164 16 16s-7.164 16-16 16-16-7.164-16-16 7.164-16 16-16zM12.82 21.331c0.233 0.86 0.208 1.664-0.032 2.389l-0.087 0.24c-0.032 0.081-0.069 0.16-0.104 0.235-0.187 0.387-0.435 0.747-0.74 1.080-0.931 1.012-2.229 1.396-2.787 1.073-0.6-0.349-0.301-1.78 0.779-2.92 1.161-1.224 2.827-2.012 2.827-2.012v-0.004zM26.035 6.849c-0.723-2.844-5.436-3.779-9.896-2.193-2.652 0.943-5.525 2.424-7.591 4.356-2.457 2.295-2.848 4.295-2.687 5.131 0.569 2.948 4.609 4.876 6.271 6.307v0.008c-0.489 0.24-4.075 2.039-4.915 3.9-0.9 1.96 0.14 3.361 0.82 3.54 2.1 0.581 4.26-0.48 5.42-2.199 1.12-1.681 1.021-3.841 0.539-4.901 0.661-0.18 1.44-0.26 2.44-0.139 2.801 0.32 3.361 2.080 3.24 2.8-0.12 0.719-0.697 1.139-0.899 1.259-0.2 0.121-0.26 0.16-0.241 0.241 0.020 0.12 0.121 0.12 0.28 0.1 0.22-0.040 1.461-0.6 1.521-1.961 0.060-1.72-1.581-3.639-4.5-3.6-1.2 0.021-1.961 0.121-2.5 0.341-0.040-0.060-0.081-0.1-0.14-0.14-1.8-1.94-5.14-3.3-5-5.88 0.040-0.94 0.38-3.419 6.4-6.419 4.94-2.461 8.881-1.78 9.561-0.28 0.977 2.139-2.101 6.12-7.241 6.699-1.96 0.22-2.98-0.539-3.241-0.82-0.279-0.3-0.319-0.32-0.419-0.259-0.16 0.080-0.060 0.34 0 0.5 0.16 0.4 0.78 1.1 1.861 1.46 0.939 0.3 3.24 0.479 6-0.6 3.099-1.199 5.519-4.54 4.819-7.34z"></path>
</symbol>
<symbol id="icon-git" viewBox="0 0 32 32">
<path d="M31.397 14.575l-13.972-13.971c-0.804-0.805-2.109-0.805-2.915 0l-3.246 3.246 2.443 2.443c0.392-0.187 0.83-0.293 1.293-0.293 1.657 0 3 1.343 3 3 0 0.463-0.105 0.902-0.293 1.293l3.999 3.999c0.392-0.187 0.83-0.293 1.293-0.293 1.657 0 3 1.343 3 3s-1.343 3-3 3-3-1.343-3-3c0-0.463 0.105-0.902 0.293-1.293l-3.999-3.999c-0.095 0.046-0.193 0.086-0.293 0.121v8.343c1.165 0.412 2 1.522 2 2.829 0 1.657-1.343 3-3 3s-3-1.343-3-3c0-1.306 0.835-2.417 2-2.829v-8.343c-1.165-0.412-2-1.522-2-2.829 0-0.463 0.105-0.902 0.293-1.293l-2.443-2.443-9.247 9.246c-0.805 0.806-0.805 2.11 0 2.915l13.973 13.971c0.804 0.805 2.109 0.805 2.915 0l13.906-13.906c0.805-0.805 0.805-2.111-0-2.915z"></path>
</symbol>
<!--#0052cc-->
<symbol id="icon-bitbucket" viewBox="0 0 32 32">
<path d="M1.037 1.615c-0.565-0.008-1.029 0.445-1.037 1.011 0 0.060 0.003 0.12 0.013 0.179l4.351 26.415c0.112 0.665 0.687 1.156 1.363 1.163h20.873c0.509 0.005 0.944-0.361 1.027-0.861l4.36-26.707c0.091-0.557-0.288-1.084-0.847-1.175-0.060-0.011-0.119-0.015-0.177-0.013zM19.36 20.704h-6.664l-1.803-9.419h10.081z"></path>
</symbol>
<symbol id="icon-mobile" viewBox="0 0 32 32">
<path d="M23 0h-14c-1.65 0-3 1.35-3 3v26c0 1.65 1.35 3 3 3h14c1.65 0 3-1.35 3-3v-26c0-1.65-1.35-3-3-3zM12 1.5h8v1h-8v-1zM16 30c-1.105 0-2-0.895-2-2s0.895-2 2-2 2 0.895 2 2-0.895 2-2 2zM24 24h-16v-20h16v20z"></path>
</symbol>
<symbol id="icon-terminal" viewBox="0 0 26 28">
<path d="M9.141 15.359l-7.281 7.281c-0.203 0.203-0.516 0.203-0.719 0l-0.781-0.781c-0.203-0.203-0.203-0.516 0-0.719l6.141-6.141-6.141-6.141c-0.203-0.203-0.203-0.516 0-0.719l0.781-0.781c0.203-0.203 0.516-0.203 0.719 0l7.281 7.281c0.203 0.203 0.203 0.516 0 0.719zM26 22.5v1c0 0.281-0.219 0.5-0.5 0.5h-15c-0.281 0-0.5-0.219-0.5-0.5v-1c0-0.281 0.219-0.5 0.5-0.5h15c0.281 0 0.5 0.219 0.5 0.5z"></path>
</symbol>
</defs>
</svg>
